<?xml version="1.0" standalone="no"?><!DOCTYPE svg PUBLIC "-//W3C//DTD SVG 1.1//EN" "http://www.w3.org/Graphics/SVG/1.1/DTD/svg11.dtd"><svg class="icon" width="200px" height="200.00px" viewBox="0 0 1024 1024" version="1.1" xmlns="http://www.w3.org/2000/svg"><path fill="#ff5777" d="M917.46 447.73a437.53 437.53 0 0 0-116.55-255.27C723.48 110 621 65 512.15 65s-211.33 45-288.76 127.46a437.59 437.59 0 0 0-116.55 255.27 75 75 0 0 0-2.52 19v81.62a75 75 0 0 0 150.09 0v-81.6a75 75 0 0 0-104.14-69.16C191.28 226.41 338 99.41 512.15 99.41S833 226.41 874 397.59a75 75 0 0 0-104.15 68.93v81.62a74.67 74.67 0 0 0 98.4 71.46C828.83 758.44 724 858.67 589.64 880.21a42.16 42.16 0 1 0 3.05 34.47c164.62-25 289.5-156.53 319.95-334.37a74.7 74.7 0 0 0 7.18-31.82v-81.74a74.92 74.92 0 0 0-2.36-19z m-738.13-21.54a40.62 40.62 0 0 1 40.56 40.56v81.62a40.59 40.59 0 1 1-81.17 0v-53.53q0-20.46 2-40.21a40.62 40.62 0 0 1 38.61-28.44z m665.58 162.74a40.61 40.61 0 0 1-40.55-40.56v-81.62a40.55 40.55 0 0 1 79.21-12.12q1.89 19.94 1.95 40.21a469.15 469.15 0 0 1-5.74 74.67A40.56 40.56 0 0 1 845 588.93z"  /><path fill="#ff5777" d="M553 953a52.15 52.15 0 1 1 41.45-83.72 321.06 321.06 0 0 0 163.3-82.65C801 745.9 834 693.05 853.73 633a84.68 84.68 0 0 1-93.84-84.91v-81.57a85.07 85.07 0 0 1 100-83.52C838.36 308.15 795 240.83 736.61 192a356.7 356.7 0 0 0-103.72-60.69 344.08 344.08 0 0 0-241.48 0A356.83 356.83 0 0 0 287.69 192c-58.43 48.85-101.76 116.18-123.25 191a84.63 84.63 0 0 1 14.95-1.32 85 85 0 0 1 85 85.05v81.62a85.16 85.16 0 0 1-85 85 85 85 0 0 1-85-85v-81.6A84.6 84.6 0 0 1 97 446a447.57 447.57 0 0 1 119.11-260.39C295.17 101.39 400.31 55 512.15 55s217 46.39 296.05 130.62A447.54 447.54 0 0 1 927.33 446a84.88 84.88 0 0 1 2.49 20.81v81.69a85.31 85.31 0 0 1-7.55 34.82C891 763.15 764.83 896.07 599.76 923.68A52.14 52.14 0 0 1 553 953z m-0.14-84.31a32.16 32.16 0 1 0 30.43 42.73l2-5.7 6-0.91c78.44-11.93 149.18-48.9 204.57-106.9s92.41-133.84 107-219.27l0.23-1.35 0.59-1.24a65.18 65.18 0 0 0 6.22-27.56v-81.74a64.91 64.91 0 0 0-2-16.52l-0.19-0.73-0.08-0.75a427.53 427.53 0 0 0-114-249.43C718.37 119.15 618.41 75 512.15 75s-206.22 44.15-281.47 124.31a427.52 427.52 0 0 0-113.89 249.44l-0.08 0.79-0.21 0.78a64.35 64.35 0 0 0-2.18 16.46v81.59a65.06 65.06 0 0 0 65 65 65.13 65.13 0 0 0 65-65v-81.62a65.1 65.1 0 0 0-65-65.05 64.75 64.75 0 0 0-25.24 5.1l-18.21 7.67 4.6-19.21a414.93 414.93 0 0 1 50.58-121.74 400.13 400.13 0 0 1 83.75-96.89 376.88 376.88 0 0 1 109.52-64.07 364.14 364.14 0 0 1 255.53 0 377.14 377.14 0 0 1 109.52 64.07 400.35 400.35 0 0 1 83.75 96.89 414.91 414.91 0 0 1 50.57 121.74l4.6 19.21-18.21-7.67a65 65 0 0 0-90.26 59.75v81.59a64.67 64.67 0 0 0 85.22 62l18-6-5.18 18.24c-20 70.22-56.79 132.06-106.51 178.85a340.9 340.9 0 0 1-180.18 88.91l-6.89 1.1-3.41-6.09a32.2 32.2 0 0 0-28.06-16.48zM179.31 599a50.65 50.65 0 0 1-50.59-50.59v-53.57c0-13.9 0.68-27.76 2-41.2l0.11-1 0.31-1a50.41 50.41 0 0 1 48.17-35.44 50.7 50.7 0 0 1 50.54 50.54v81.64A50.65 50.65 0 0 1 179.31 599z m-28.79-142.29c-1.19 12.44-1.8 25.27-1.8 38.13v53.53a30.59 30.59 0 1 0 61.17 0v-81.62a30.53 30.53 0 0 0-59.37-10z m694.65 142.22h-0.25a50.7 50.7 0 0 1-50.54-50.54v-81.64a50.55 50.55 0 0 1 50.55-50.42h0.17a50.38 50.38 0 0 1 48 35.28l0.33 1 0.1 1.06c1.28 13.52 2 27.36 2 41.13a480.92 480.92 0 0 1-5.86 76.26l-0.31 2-1 1.69a50.81 50.81 0 0 1-43.19 24.18z m-0.24-20h0.19a30.78 30.78 0 0 0 25.11-13.08 459.59 459.59 0 0 0 5.29-71c0-12.78-0.64-25.61-1.8-38.17A30.45 30.45 0 0 0 845 436.33h-0.1a30.56 30.56 0 0 0-30.55 30.45v81.59a30.67 30.67 0 0 0 30.58 30.56z"  /></svg>